PathFileType	4	(X/Y/Z)	Patient4_TMGait_0pt3_03_right_28.trc.trc
DataRate	CameraRate	NumFrames	NumMarkers	Units	OrigDataRate	OrigDataStartFrame	OrigNumFrames
56.000000000000	56.000000000000	6	33	mm	56.000000000000	106	       141
Frame#	Time	Sacral			L.Shoulder			Chest			R.Shoulder			Neck			R.ASIS			L.ASIS			R.Thigh.Superior			R.Thigh.Lateral			R.Thigh.Inferior			R.Patella			L.Thigh.Superior			L.Thigh.Lateral			L.Thigh.Inferior			L.Patella			L.Shank.Superior			L.Shank.Lateral			L.Shank.Inferior			R.Shank.Superior			R.Shank.Lateral			R.Shank.Inferior			R.Heel			R.Midfoot.Superior			R.Midfoot.Lateral			R.Toe			L.Heel			L.Midfoot.Lateral			L.Midfoot.Superior			L.Toe			L.Elbow			L.Wrist			R.Elbow			R.Wrist			
		X1	Y1	Z1	X2	Y2	Z2	X3	Y3	Z3	X4	Y4	Z4	X5	Y5	Z5	X6	Y6	Z6	X7	Y7	Z7	X8	Y8	Z8	X9	Y9	Z9	X10	Y10	Z10	X11	Y11	Z11	X12	Y12	Z12	X13	Y13	Z13	X14	Y14	Z14	X15	Y15	Z15	X16	Y16	Z16	X17	Y17	Z17	X18	Y18	Z18	X19	Y19	Z19	X20	Y20	Z20	X21	Y21	Z21	X22	Y22	Z22	X23	Y23	Z23	X24	Y24	Z24	X25	Y25	Z25	X26	Y26	Z26	X27	Y27	Z27	X28	Y28	Z28	X29	Y29	Z29	X30	Y30	Z30	X31	Y31	Z31	X32	Y32	Z32	X33	Y33	Z33	

106	54.215000000000	681.571153056812	990.717048489259	448.089847869527	887.339602151873	1417.067326382057	277.477664918517	973.713226445581	1344.123329681587	445.661903187071	879.300923233547	1415.141573886637	614.298779523171	855.477642883439	1478.776632308524	435.408862116895	905.899497005400	926.082042470976	576.853653184436	906.961694804463	943.387225912309	303.117188371774	981.996147674077	746.003930344980	545.304533230177	933.415689093156	628.281295268805	616.258448542745	1017.129454685072	581.861881102027	533.033728308708	1026.060367390435	467.451689838185	559.044117885951	969.397144767333	740.614000039249	352.911466835572	901.132903350229	612.310731750782	296.374429921336	984.028007380033	546.600207516424	376.426353209477	988.882656384176	470.934468984667	388.179542548252	947.513269501391	396.618292449736	379.399854783218	847.666701951985	296.309603136632	318.831728014445	865.829569128987	181.380905847375	395.441607874614	940.809642311508	401.849063084437	573.117796288064	813.520102301616	380.830073013514	632.582009143955	790.098703462037	269.324609390181	593.382788858763	584.251701648479	225.955899355702	560.723388624847	743.742139175103	155.300665416122	618.902059192437	633.098943618593	170.182961032144	644.035500812589	794.652707572091	40.737265327793	661.241744931270	712.686446372371	39.029136805373	422.631525427477	792.791955732980	36.265799562042	348.162668976412	875.247253848213	94.633023151165	383.685603587891	1004.538202222591	39.669622947182	362.374407930511	957.790745091418	1081.746409200827	137.426153091322	1125.098522264555	880.907015674019	141.250155494711	849.376621538543	1058.756502728343	719.304776770545	929.384663129444	812.668819521612	741.528610875222	
107	54.232857142857	680.646447603996	989.851031864327	446.111713282102	888.232732408749	1417.166602784539	278.400650580666	972.371887891321	1343.938394574643	447.570272136123	875.334942401840	1414.096267985214	615.198178674872	854.572608769179	1478.430893388576	436.276623559544	904.125490599212	926.281318886076	577.180539564702	907.663505304394	943.177025738889	303.328761646488	983.769058444915	749.260695248924	544.227837343859	938.345782282646	630.427970809877	615.028243644059	1022.571904954331	586.016501919558	531.104795490763	1034.664841910693	471.926736697445	556.860977683497	969.075155329627	739.383264395359	353.026776025533	900.219319554743	611.392248317271	296.487661987568	982.177101927941	545.333187766387	377.117431803226	986.526401454845	469.742520938476	389.155780885909	944.626742362922	395.542922354485	380.040212571562	844.340585498651	295.884250442499	319.037424086294	861.288303144933	180.826376575044	395.680198536411	951.280235380509	404.245552776772	571.442532809166	824.837315777747	379.291407703099	630.889067714054	805.123346464589	267.121308098422	591.885556105541	600.654303032701	215.224397528661	559.581403866851	763.352102935493	153.056571805371	617.664662013414	652.404100491244	162.487200393807	643.064977149886	819.712706593000	41.589016431297	660.288038408289	707.285401567826	39.027933615771	422.575346159091	787.440610368903	36.241926494491	348.110488419852	869.897114072994	94.532809090053	383.749971683985	999.187099805352	39.612785656060	362.353804999510	964.244200280680	1084.295957084710	136.540622890789	1141.254055241276	891.626370098611	141.037752620513	830.314350532753	1059.214026195201	718.242334788330	891.657528031896	807.736624055556	741.322822405661	
108	54.250714285714	679.789044876575	989.593884918141	444.382988640275	889.258426120530	1417.725359631803	279.600562033363	971.126263098446	1344.215049159220	449.745266292813	871.491826323730	1413.670943555044	616.257180436547	853.768181439318	1478.567716864792	437.348120145745	902.299317152599	926.854560960842	577.785388120181	908.356634017358	943.463625827163	303.848839039943	984.909925439884	752.615487693294	543.603589343942	942.160906602347	632.811502567357	614.192943375217	1026.821931266955	590.213486400775	529.744352344908	1041.952074763645	476.806153743957	555.215609773310	968.293596026781	738.375250310013	353.255352947958	898.511428771510	610.898956878892	296.571356351457	979.385032716755	544.276760610350	377.646384745309	983.118991273384	468.876151214749	389.914490845885	940.868099548537	394.849366723557	380.464881112564	840.352788935731	295.611894269453	319.104903135617	856.442129493401	180.477180270517	395.815072525735	961.064286934852	406.816916728417	570.249224834286	836.028016091335	376.850669967719	629.814845628279	820.963649669496	264.070709925862	590.861269076289	618.786652776079	202.015267005804	559.086284360890	784.790346784641	149.704245599065	616.727685780208	673.816477259099	152.727130543019	642.546662843569	847.419322243441	42.156459762849	659.303504700883	701.869276702856	39.023259078047	422.512415644580	782.075372276610	36.214075353810	348.053753414388	864.531266268956	94.458884621129	383.766459077571	993.826158296765	39.567446695458	362.334286478064	970.519267559473	1087.365599241817	135.946396913445	1156.929761677993	903.399299431103	141.255533572953	811.519889583678	1061.076026177230	717.144426888871	855.172269423800	805.827778144557	740.432665689180	
109	54.268571428571	679.001144304104	989.984115656052	442.918316013246	890.427158054715	1418.767388297590	281.066956407995	969.989952551746	1344.978279426445	452.170287097851	867.817805455331	1413.912926392357	617.465864610487	853.075365416166	1479.210572978778	438.605899912997	900.432538420631	927.835590784129	578.667147530959	909.020922087230	944.260354011311	304.673942262128	985.410211341158	756.012975468522	543.431473904439	944.807270892376	635.366469025303	613.770340208881	1029.823565081698	594.357038748178	528.978278453314	1047.821828588504	481.995554804573	554.135484570772	967.005154817097	737.613216558424	353.635662884925	895.977252398069	610.863707302849	296.634520721599	975.604173821798	543.455981187291	378.032378334813	978.609798095162	468.357699604041	390.457237912417	936.196575626625	394.564110780485	380.674132868478	835.668157903104	295.509335943947	319.036905357947	851.271793395172	180.347690690182	395.852359384339	970.054318529747	409.551348924550	569.554380812514	847.085617502119	373.634398192900	629.404621111093	837.507627093641	260.407122683800	590.327604844336	638.693969051010	186.892086980208	559.269769757217	807.825597494297	145.536929911294	616.066023157474	697.248502717964	141.407303129040	642.480473812859	877.281267679152	42.668881865776	658.229774628836	696.439566807699	39.014787638389	422.441251266607	776.692832613051	36.182618337819	347.993324897792	859.147993225642	94.416009520559	383.734741888374	988.451633867001	39.536562288196	362.317156140394	976.642683191504	1090.959249035449	135.667493224241	1172.013002361571	916.151610236134	141.948902586385	793.158825621614	1064.326024982491	715.986429705019	820.365566732887	806.714470290320	738.973904779207	
110	54.286428571429	678.284741515723	991.001716213758	441.732678802420	891.733085758070	1420.268888522474	282.784241360634	968.967653517452	1346.208375870916	454.821847509442	864.351003494373	1414.813066840601	618.816024794026	852.498613560797	1480.336695494976	440.032433386808	898.540168888965	929.216956825682	579.825469530408	909.641090182671	945.533450570142	305.800128008208	985.276120176675	759.369345429748	543.708065914909	946.268699439725	638.005158242995	613.781785623631	1031.554963462195	598.334756589157	528.821580359372	1052.217627499927	487.371360559326	553.631723119293	965.191704605899	737.094984434983	354.210263945509	892.638290901836	611.284051746129	296.692193305557	970.847962435127	542.876170015425	378.306261005802	973.013852108770	468.183287643867	390.804054711140	930.629719899408	394.683162513621	380.685492348716	830.298367420359	295.578470760898	318.846424378160	845.780363429637	180.436085835734	395.806532634774	978.157355343041	412.418916381319	569.358191850524	857.999519714389	369.797803960841	629.682931041407	854.593707340039	256.392685746908	590.277582647232	660.312248800683	170.486473175893	560.139609982896	832.153451366404	140.912075910527	615.644111265905	722.518591681647	129.100951769103	642.847867944758	908.737348839499	43.418218159714	656.999677566030	690.998847662405	39.002734516811	422.360455560584	771.291189126977	36.148113786237	347.930316860185	853.747647683017	94.406077196113	383.659156675659	983.060945480138	39.522272517329	362.304340944183	982.625922081689	1095.038759010606	135.719624150670	1186.410550196167	929.770389609927	143.152604306337	775.417891518403	1068.861756395085	714.754108232147	787.615020379191	810.049847460781	737.074639044580	
111	54.304285714286	677.642021138768	992.566803598991	440.840860444067	893.152476106373	1422.156950148333	284.732643006094	968.055429339422	1347.839620132250	457.671029338998	861.120036364786	1416.303479377608	620.302244890301	852.035080434565	1481.876691201771	441.612069604410	896.641337084272	930.944014591709	581.258772954894	910.208489029946	947.203819813947	307.222256305587	984.532575007829	762.573960896139	544.431167057496	946.572344138353	640.619776987633	614.254438010131	1032.037466870346	602.021347052780	529.282395398037	1055.134132825795	492.784286781449	553.705040321525	962.866498147092	736.792120902602	355.016395903023	888.567111052499	612.121706021999	296.758599297514	965.189895318470	542.521242879645	378.500265167140	966.410352272651	468.322101378875	390.983584790128	924.242293439971	395.170997827656	380.526600181847	824.300295252552	295.804442051913	318.552251286814	839.993435509303	180.723720943555	395.696957383603	985.301007181283	415.365656199554	569.649528112685	868.744492695324	365.509099507265	630.653512623370	872.007809922283	252.288315666424	590.686181511206	683.448245724697	153.456067488695	561.679341287988	857.396304753196	136.210279717899	615.430807749873	749.331816864669	116.402061794652	643.615839196567	941.163564884352	44.700704178078	655.554162239108	685.549975288748	38.987406317592	422.269224898227	765.870228835698	36.111058736802	347.865892137310	848.332003109712	94.427948715603	383.547840130426	977.652631927888	39.526165504902	362.298170745390	988.469469753284	1099.523046906615	136.109634614890	1200.052760502756	944.107258265676	144.884356166283	758.499123294727	1074.492691538018	713.453223644776	757.237810953281	815.384705705669	734.865378659452	
